<svg xmlns="http://www.w3.org/2000/svg" viewBox="190 70 420 420" width="100%" height="100%">
  <defs>
    <linearGradient id="pantGradient" x1="0%" y1="0%" x2="100%" y2="100%">
      <stop offset="0%" stop-color="#29B6F6" />
      <stop offset="100%" stop-color="#0277BD" />
    </linearGradient>
    <linearGradient id="leafGradient" x1="0%" y1="0%" x2="100%" y2="100%">
      <stop offset="0%" stop-color="#4CAF50" />
      <stop offset="100%" stop-color="#2E7D32" />
    </linearGradient>
    <linearGradient id="boxGradient" x1="0%" y1="0%" x2="100%" y2="100%">
      <stop offset="0%" stop-color="#FFA726" />
      <stop offset="100%" stop-color="#EF6C00" />
    </linearGradient>
  </defs>

  <g stroke-width="35" fill="none" stroke-linecap="round">
    <circle cx="400" cy="280" r="160" stroke="url(#pantGradient)" stroke-dasharray="295 710" transform="rotate(-142.5 400 280)" />
    <circle cx="400" cy="280" r="160" stroke="url(#boxGradient)" stroke-dasharray="295 710" transform="rotate(-22.5 400 280)" />
    <circle cx="400" cy="280" r="160" stroke="url(#leafGradient)" stroke-dasharray="295 710" transform="rotate(97.5 400 280)" />
  </g>

  <g transform="translate(400, 200) scale(0.85)">
    <path d="M -15 -45 h30 v10 h-5 v10 l15 20 v40 a10 10 0 0 1 -10 10 h-30 a10 10 0 0 1 -10 -10 v-40 l15 -20 v-10 h-5 z" fill="url(#pantGradient)" />
    <rect x="-25" y="-5" width="50" height="12" fill="#FFFFFF" opacity="0.8" />
  </g>

  <g transform="translate(330, 320) scale(0.85)">
    <circle cx="0" cy="5" r="40" fill="url(#leafGradient)" />
    <path d="M 0 -35 C 0 -65 30 -65 30 -35 C 30 -5 0 -5 0 -35" fill="#81C784" />
  </g>

  <g transform="translate(470, 320) scale(0.85)">
    <path d="M 0 -40 L 35 -20 L 35 20 L 0 40 L -35 20 L -35 -20 Z" fill="url(#boxGradient)" />
    <path d="M 0 -40 L 0 0 L -35 20 M 0 0 L 35 20" stroke="#FFFFFF" stroke-width="4" fill="none" opacity="0.75" stroke-linecap="round" stroke-linejoin="round"/>
  </g>
</svg>